Coordinates
version=1
nRows=18
nColumns=34
inDegrees=no

Units are S.I. units (second, meters, Newtons, ...)
If the header above contains a line with 'inDegrees', this indicates whether rotational values are in degrees (yes) or radians (no).

endheader
time	pelvis_tilt	pelvis_list	pelvis_rotation	pelvis_tx	pelvis_ty	pelvis_tz	hip_flexion_r	hip_adduction_r	hip_rotation_r	knee_angle_r	ankle_angle_r	subtalar_angle_r	mtp_angle_r	hip_flexion_l	hip_adduction_l	hip_rotation_l	knee_angle_l	ankle_angle_l	subtalar_angle_l	mtp_angle_l	lumbar_extension	lumbar_bending	lumbar_rotation	arm_flex_r	arm_add_r	arm_rot_r	elbow_flex_r	pro_sup_r	arm_flex_l	arm_add_l	arm_rot_l	elbow_flex_l	pro_sup_l
0	0.225526	-0.0285419	-0.0418745	-0.11178	1.08231	-0.612966	-0.314267	-0.0565759	-0.294464	0.0733182	0.208535	0.185848	-0.0573085	-0.327168	-0.156262	-0.456936	0.0939778	0.214198	0.347281	-0.0572852	-0.396281	0.0292194	0.0253286	-0.0458414	-0.136007	-0.104392	0.643032	1.68246	-0.0601722	-0.0905574	-0.205644	0.682448	1.60324
0.01	0.225408	-0.0286404	-0.0417538	-0.111815	1.08228	-0.613044	-0.313975	-0.0565258	-0.295388	0.0735863	0.208564	0.186643	-0.0573084	-0.326815	-0.156318	-0.457547	0.0943524	0.214582	0.348301	-0.0572851	-0.396422	0.0292348	0.0255176	-0.0459954	-0.136079	-0.104869	0.643508	1.68128	-0.0600288	-0.0905628	-0.205447	0.682608	1.60358
0.02	0.225325	-0.0287242	-0.0416382	-0.111843	1.08226	-0.613118	-0.313756	-0.0564792	-0.296267	0.0738159	0.208626	0.187418	-0.0573082	-0.326545	-0.156341	-0.458099	0.0946516	0.214904	0.349226	-0.057285	-0.396594	0.0292468	0.0257253	-0.0462447	-0.136191	-0.105544	0.644048	1.6805	-0.0599539	-0.0905307	-0.205513	0.682839	1.60416
0.03	0.225275	-0.0287934	-0.0415296	-0.111864	1.08224	-0.613188	-0.313605	-0.0564371	-0.297095	0.0740095	0.208722	0.188169	-0.0573081	-0.326359	-0.156328	-0.458583	0.0948713	0.215158	0.350042	-0.0572848	-0.396798	0.0292558	0.0259552	-0.0465909	-0.136346	-0.106415	0.644652	1.6801	-0.0599461	-0.0904613	-0.205837	0.68314	1.60499
0.04	0.225255	-0.0288489	-0.0414324	-0.11188	1.08222	-0.613254	-0.313515	-0.0564013	-0.297859	0.0741732	0.208847	0.188881	-0.0573079	-0.326258	-0.156274	-0.458975	0.0950003	0.215334	0.350712	-0.0572847	-0.397032	0.0292633	0.0262164	-0.0470388	-0.136552	-0.107465	0.645326	1.68008	-0.0600012	-0.0903555	-0.206399	0.683505	1.60605
0.05	0.22526	-0.0288939	-0.0413528	-0.11189	1.0822	-0.613314	-0.313474	-0.0563725	-0.298533	0.074315	0.208997	0.189529	-0.0573078	-0.326242	-0.156173	-0.459238	0.0950229	0.215415	0.351178	-0.0572846	-0.397297	0.0292743	0.0265231	-0.0475962	-0.136826	-0.108667	0.646082	1.68043	-0.0601124	-0.0902169	-0.207159	0.683921	1.60732
0.06	0.225287	-0.0289358	-0.0412974	-0.111896	1.08218	-0.61337	-0.313471	-0.056347	-0.299086	0.074442	0.209159	0.190079	-0.0573077	-0.326314	-0.156023	-0.459335	0.0949266	0.215388	0.351379	-0.0572844	-0.397596	0.0292986	0.0268935	-0.0482753	-0.137191	-0.109979	0.646944	1.68108	-0.0602706	-0.0900524	-0.208056	0.684374	1.60875
0.07	0.225334	-0.0289859	-0.0412712	-0.1119	1.08217	-0.61342	-0.313498	-0.0563159	-0.299494	0.0745583	0.209316	0.190502	-0.0573075	-0.326471	-0.155835	-0.459253	0.0947125	0.215253	0.351292	-0.0572843	-0.397937	0.0293507	0.0273485	-0.0490925	-0.13767	-0.111347	0.647946	1.68195	-0.060466	-0.0898725	-0.209015	0.684848	1.61026
0.08	0.225396	-0.0290566	-0.0412764	-0.111905	1.08216	-0.613464	-0.313544	-0.0562676	-0.299749	0.074668	0.209453	0.190787	-0.0573074	-0.326698	-0.15563	-0.459027	0.0944068	0.215026	0.350957	-0.0572842	-0.398327	0.0294456	0.0279087	-0.0500665	-0.138288	-0.112716	0.649129	1.68288	-0.0606887	-0.0896915	-0.209958	0.685331	1.61175
0.09	0.225467	-0.0291566	-0.041312	-0.111913	1.08215	-0.613498	-0.313594	-0.056193	-0.299868	0.0747789	0.209564	0.190948	-0.0573072	-0.326962	-0.15544	-0.458743	0.0940637	0.214743	0.350493	-0.0572841	-0.398768	0.0295945	0.0285898	-0.0512121	-0.139057	-0.114048	0.650526	1.68371	-0.0609288	-0.0895266	-0.210811	0.685813	1.61311
0.1	0.225535	-0.0292864	-0.041372	-0.111928	1.08214	-0.61352	-0.313628	-0.0560895	-0.299883	0.0749015	0.209649	0.191013	-0.0573071	-0.327218	-0.155293	-0.458492	0.0937471	0.214441	0.35003	-0.0572839	-0.399258	0.0297995	0.0293946	-0.0525307	-0.13997	-0.115344	0.652146	1.68436	-0.0611775	-0.0893973	-0.211526	0.686283	1.6143
0.11	0.225585	-0.0294379	-0.0414455	-0.111953	1.08214	-0.613527	-0.313619	-0.0559613	-0.299836	0.0750504	0.209716	0.191011	-0.057307	-0.327416	-0.155209	-0.458346	0.0935207	0.214153	0.349678	-0.0572838	-0.399793	0.0300539	0.0303081	-0.0540026	-0.141004	-0.116651	0.653963	1.68484	-0.0614278	-0.089323	-0.212078	0.686723	1.61533
0.12	0.225602	-0.0295977	-0.0415181	-0.111994	1.08213	-0.613515	-0.313536	-0.0558163	-0.299774	0.0752472	0.209778	0.190973	-0.0573068	-0.3275	-0.155205	-0.458353	0.0934441	0.213904	0.349518	-0.0572837	-0.400362	0.0303455	0.0312959	-0.0555868	-0.142117	-0.11804	0.655917	1.68523	-0.0616768	-0.0893215	-0.212464	0.687117	1.61628
0.13	0.225568	-0.029753	-0.0415748	-0.112052	1.08213	-0.613479	-0.313344	-0.0556628	-0.299747	0.0755221	0.209859	0.190931	-0.0573067	-0.327417	-0.155292	-0.458543	0.0935697	0.213711	0.3496	-0.0572835	-0.400954	0.0306621	0.0323087	-0.0572288	-0.143271	-0.119564	0.657933	1.68564	-0.061928	-0.0894077	-0.212697	0.687452	1.61721
0.14	0.22547	-0.0298957	-0.0416035	-0.112131	1.08212	-0.613417	-0.313007	-0.0555062	-0.299799	0.075916	0.209992	0.190925	-0.0573065	-0.327123	-0.155482	-0.458929	0.0939388	0.21359	0.349947	-0.0572834	-0.401557	0.0309952	0.0332884	-0.0588704	-0.144436	-0.121219	0.659931	1.68619	-0.0621921	-0.0895923	-0.212796	0.687722	1.61813
0.15	0.225298	-0.0300266	-0.0415974	-0.112234	1.08211	-0.613323	-0.312486	-0.0553465	-0.299969	0.0764813	0.210222	0.190995	-0.0573064	-0.326587	-0.155793	-0.459513	0.0945811	0.213551	0.350558	-0.0572833	-0.402158	0.0313432	0.0341755	-0.0604551	-0.145605	-0.122932	0.661841	1.68694	-0.0624862	-0.0898813	-0.212788	0.687933	1.619
0.16	0.225042	-0.030157	-0.0415561	-0.112363	1.0821	-0.613192	-0.311741	-0.0551764	-0.300288	0.07728	0.210596	0.191185	-0.0573062	-0.325788	-0.156246	-0.460295	0.0955147	0.213602	0.351419	-0.0572832	-0.402747	0.031713	0.0349158	-0.0619279	-0.146779	-0.124584	0.663599	1.68787	-0.0628289	-0.0902755	-0.212712	0.688098	1.6197
0.17	0.224692	-0.0303083	-0.0414864	-0.11252	1.08209	-0.613019	-0.310726	-0.0549805	-0.300771	0.0783816	0.21116	0.191524	-0.0573061	-0.324712	-0.15687	-0.461279	0.0967493	0.213747	0.352512	-0.057283	-0.403315	0.0321192	0.0354681	-0.0632344	-0.147964	-0.126048	0.665144	1.6889	-0.0632346	-0.0907718	-0.212625	0.688232	1.6201
